<?xml version="1.0" encoding="UTF-8" ?>
<!DOCTYPE svg PUBLIC "-//W3C//DTD SVG 1.1//EN" "http://www.w3.org/Graphics/SVG/1.1/DTD/svg11.dtd">
<svg width="418pt" height="92pt" viewBox="0 0 418 92" version="1.1" xmlns="http://www.w3.org/2000/svg">
<g id="#1a171bff">
<path fill="#1a171b" opacity="1.00" d=" M 35.38 1.62 C 46.72 -0.99 59.04 0.96 68.95 7.08 C 79.96 13.73 87.85 25.28 90.00 37.97 C 92.22 50.30 89.00 63.47 81.34 73.38 C 73.50 83.73 61.02 90.41 48.04 91.05 C 34.52 91.93 20.82 86.24 11.85 76.11 C 2.40 65.73 -1.67 50.82 1.10 37.07 C 4.25 19.87 18.29 5.34 35.38 1.62 M 37.37 9.47 C 22.27 12.66 10.14 26.15 8.57 41.51 C 6.71 55.94 14.29 70.95 26.96 78.08 C 37.06 84.01 50.02 84.66 60.67 79.77 C 69.96 75.62 77.36 67.48 80.60 57.84 C 83.97 48.10 83.03 36.97 78.04 27.96 C 70.52 13.69 53.09 5.68 37.37 9.47 Z" />
<path fill="#1a171b" opacity="1.00" d=" M 48.79 16.32 C 52.50 19.42 54.67 23.81 56.25 28.28 C 53.74 28.30 51.24 28.30 48.73 28.30 C 48.72 24.30 48.69 20.31 48.79 16.32 Z" />
<path fill="#1a171b" opacity="1.00" d=" M 132.39 20.30 C 135.31 18.29 139.78 20.47 140.02 24.00 C 140.64 27.65 136.46 30.83 133.11 29.26 C 129.38 27.94 128.93 22.19 132.39 20.30 Z" />
<path fill="#1a171b" opacity="1.00" d=" M 240.89 27.01 C 240.99 23.71 246.63 23.33 247.43 26.39 C 248.16 29.92 247.76 33.56 247.84 37.14 C 253.15 37.32 258.50 36.80 263.78 37.41 C 266.91 37.86 266.97 43.06 263.85 43.57 C 258.55 44.17 253.18 43.66 247.85 43.83 C 247.94 49.21 247.58 54.61 248.10 59.97 C 248.24 62.21 249.50 64.65 251.97 64.93 C 257.69 66.08 262.67 62.40 268.02 61.22 C 271.61 60.74 272.68 66.14 269.62 67.62 C 263.43 70.99 255.91 72.98 248.95 71.06 C 244.82 70.01 241.43 66.36 241.00 62.08 C 240.42 56.02 240.86 49.92 240.72 43.84 C 238.49 43.83 236.26 43.94 234.06 43.66 C 230.93 43.75 230.31 38.59 233.10 37.62 C 235.59 36.98 238.18 37.18 240.72 37.11 C 240.76 33.75 240.53 30.37 240.89 27.01 Z" />
<path fill="#1a171b" opacity="1.00" d=" M 183.98 37.08 C 190.01 33.13 197.74 33.82 204.38 35.69 C 206.40 34.68 209.83 33.22 211.03 36.12 C 211.66 39.54 212.08 43.48 210.54 46.69 C 208.03 49.10 205.52 45.88 203.80 44.19 C 200.15 40.10 193.47 38.88 188.73 41.70 C 186.45 42.98 186.17 47.19 189.02 47.94 C 195.47 49.80 202.68 47.93 208.79 51.24 C 215.35 54.70 215.12 65.29 209.02 69.12 C 202.55 73.53 194.27 72.01 187.12 70.46 C 185.33 71.18 183.34 72.73 181.37 71.61 C 179.03 69.86 179.89 66.54 179.65 64.03 C 179.90 61.94 179.15 59.16 181.17 57.76 C 182.87 56.87 184.92 57.57 185.65 59.35 C 188.81 65.69 197.57 67.36 203.61 64.54 C 206.97 63.26 206.92 57.55 203.18 56.92 C 196.94 55.68 189.96 57.34 184.31 53.70 C 178.43 50.31 178.30 40.73 183.98 37.08 Z" />
<path fill="#1a171b" opacity="1.00" d=" M 301.95 37.89 C 304.36 35.62 307.79 34.97 310.96 34.49 C 315.80 33.93 321.22 33.75 325.43 36.62 C 328.80 38.93 330.23 43.14 330.32 47.09 C 330.51 52.86 330.33 58.64 330.38 64.42 C 332.18 64.65 334.07 64.58 335.75 65.37 C 337.25 66.92 336.96 69.99 334.86 70.87 C 331.96 71.37 328.95 71.38 326.04 70.95 C 324.32 70.56 324.22 68.49 323.52 67.20 C 317.64 71.82 308.82 74.07 302.10 69.96 C 295.39 65.94 295.23 55.03 301.60 50.62 C 307.90 46.22 316.12 46.67 323.34 47.96 C 322.89 45.48 322.31 42.44 319.57 41.50 C 314.54 39.45 309.60 42.44 304.86 43.83 C 301.68 44.74 299.60 39.95 301.95 37.89 M 307.86 54.80 C 305.87 55.70 304.04 57.67 304.29 60.00 C 304.37 62.53 306.71 64.35 309.04 64.77 C 313.60 65.55 318.47 63.94 321.81 60.79 C 323.71 59.17 323.09 56.47 323.32 54.28 C 318.27 53.10 312.69 52.52 307.86 54.80 Z" />
<path fill="#1a171b" opacity="1.00" d=" M 366.36 37.34 C 371.46 34.07 377.98 33.82 383.84 34.49 C 389.15 35.08 393.49 39.59 393.94 44.91 C 394.54 51.39 394.08 57.92 394.22 64.42 C 396.58 64.66 400.81 64.42 400.48 67.92 C 400.36 72.33 394.81 71.05 391.89 71.19 C 389.26 71.66 387.87 69.44 387.35 67.22 C 381.48 71.78 372.76 74.04 366.04 70.04 C 359.18 66.04 359.04 54.91 365.55 50.52 C 371.86 46.21 380.03 46.71 387.22 47.94 C 386.68 45.50 386.15 42.46 383.44 41.52 C 378.13 39.30 373.03 42.81 367.99 43.96 C 364.70 43.89 363.64 38.99 366.36 37.34 M 369.91 55.94 C 367.08 58.01 367.76 62.78 370.97 64.10 C 375.93 66.21 381.95 64.28 385.73 60.69 C 387.55 59.07 386.92 56.44 387.15 54.29 C 381.50 52.99 374.84 52.28 369.91 55.94 Z" />
<path fill="#1a171b" opacity="1.00" d=" M 32.91 34.95 C 35.97 34.95 39.02 34.95 42.08 34.96 C 42.08 37.48 42.08 40.01 42.07 42.54 C 38.74 42.54 35.41 42.54 32.08 42.54 C 32.31 40.01 32.59 37.48 32.91 34.95 Z" />
<path fill="#1a171b" opacity="1.00" d=" M 124.77 41.25 C 122.03 40.03 122.81 35.15 125.96 35.18 C 130.46 35.08 135.11 34.61 139.54 35.48 C 139.76 35.72 140.19 36.21 140.40 36.45 C 140.86 45.80 140.45 55.19 140.59 64.56 C 145.03 64.72 149.53 64.17 153.93 64.92 C 156.77 66.39 155.60 71.82 152.06 71.12 C 142.04 71.20 132.01 71.30 121.99 71.07 C 118.53 71.32 117.80 65.56 121.09 64.83 C 125.22 64.26 129.41 64.67 133.57 64.56 C 133.57 56.96 133.59 49.35 133.56 41.74 C 130.65 41.62 127.60 42.14 124.77 41.25 Z" />
<path fill="#1a171b" opacity="1.00" d=" M 15.05 49.20 C 18.52 49.18 22.00 49.19 25.47 49.20 C 25.73 51.72 25.98 54.25 26.23 56.78 C 23.12 56.78 20.00 56.78 16.89 56.79 C 16.14 54.29 15.53 51.76 15.05 49.20 Z" />
<path fill="#1a171b" opacity="1.00" d=" M 282.30 61.14 C 285.61 59.16 290.22 62.28 289.65 66.08 C 289.49 69.91 284.38 72.13 281.50 69.55 C 278.69 67.47 279.15 62.66 282.30 61.14 Z" />
<path fill="#1a171b" opacity="1.00" d=" M 63.19 63.42 C 65.58 63.42 67.96 63.43 70.35 63.45 C 67.41 67.42 63.64 70.66 59.37 73.12 C 60.82 69.96 62.12 66.73 63.19 63.42 Z" />
</g>
<g id="#f8b41dff">
<path fill="#f8b41d" opacity="1.00" d=" M 34.55 28.29 C 36.15 23.82 38.29 19.39 42.04 16.33 C 42.11 20.32 42.08 24.31 42.08 28.30 C 39.57 28.30 37.06 28.30 34.55 28.29 Z" />
<path fill="#f8b41d" opacity="1.00" d=" M 64.58 34.95 C 67.69 34.95 70.81 34.95 73.92 34.95 C 74.68 37.44 75.29 39.97 75.75 42.53 C 72.28 42.55 68.81 42.54 65.34 42.54 C 65.09 40.01 64.83 37.48 64.58 34.95 Z" />
<path fill="#f8b41d" opacity="1.00" d=" M 223.33 61.01 C 226.98 59.13 231.60 62.96 230.33 66.89 C 229.56 70.56 224.35 71.97 221.88 69.12 C 219.41 66.83 220.27 62.35 223.33 61.01 Z" />
<path fill="#f8b41d" opacity="1.00" d=" M 20.45 63.45 C 22.85 63.43 25.25 63.42 27.65 63.43 C 28.68 66.75 29.96 69.99 31.50 73.11 C 27.18 70.70 23.40 67.42 20.45 63.45 Z" />
</g>
<g id="#1272b1ff">
<path fill="#1272b1" opacity="1.00" d=" M 20.43 28.28 C 23.38 24.31 27.16 21.03 31.47 18.61 C 30.00 21.76 28.68 24.97 27.67 28.30 C 25.25 28.31 22.84 28.30 20.43 28.28 Z" />
<path fill="#1272b1" opacity="1.00" d=" M 48.72 34.96 C 51.78 34.95 54.85 34.95 57.91 34.95 C 58.23 37.48 58.51 40.01 58.75 42.54 C 55.41 42.56 52.06 42.56 48.72 42.55 C 48.72 40.02 48.72 37.49 48.72 34.96 Z" />
<path fill="#1272b1" opacity="1.00" d=" M 65.32 49.18 C 68.80 49.16 72.28 49.16 75.77 49.18 C 75.31 51.76 74.70 54.31 73.91 56.81 C 70.80 56.80 67.68 56.80 64.57 56.79 C 64.82 54.25 65.07 51.71 65.32 49.18 Z" />
<path fill="#1272b1" opacity="1.00" d=" M 165.49 61.52 C 169.08 60.30 172.90 64.10 171.70 67.70 C 170.88 71.36 165.65 72.65 163.23 69.77 C 160.66 67.24 162.00 62.38 165.49 61.52 Z" />
</g>
<g id="#008f36ff">
<path fill="#008f36" opacity="1.00" d=" M 59.36 18.66 C 63.66 21.06 67.41 24.32 70.36 28.27 C 67.97 28.29 65.57 28.30 63.18 28.30 C 62.13 25.00 60.85 21.78 59.36 18.66 Z" />
<path fill="#008f36" opacity="1.00" d=" M 32.08 49.20 C 35.41 49.19 38.75 49.19 42.08 49.19 C 42.08 51.72 42.08 54.25 42.08 56.78 C 39.03 56.78 35.97 56.78 32.92 56.78 C 32.59 54.26 32.31 51.73 32.08 49.20 Z" />
<path fill="#008f36" opacity="1.00" d=" M 347.27 61.24 C 350.49 59.14 355.17 62.04 354.82 65.84 C 354.83 69.82 349.53 72.21 346.58 69.51 C 343.90 67.45 344.26 62.82 347.27 61.24 Z" />
<path fill="#008f36" opacity="1.00" d=" M 48.73 63.43 C 51.24 63.43 53.74 63.43 56.25 63.44 C 54.66 67.92 52.50 72.31 48.79 75.42 C 48.69 71.42 48.72 67.43 48.73 63.43 Z" />
</g>
<g id="#e32343ff">
<path fill="#e32343" opacity="1.00" d=" M 16.88 34.95 C 20.00 34.95 23.12 34.95 26.23 34.96 C 25.98 37.48 25.72 40.01 25.47 42.54 C 22.00 42.54 18.53 42.54 15.06 42.53 C 15.52 39.97 16.12 37.44 16.88 34.95 Z" />
<path fill="#e32343" opacity="1.00" d=" M 48.72 49.19 C 52.06 49.18 55.40 49.18 58.73 49.20 C 58.50 51.73 58.23 54.26 57.89 56.78 C 54.83 56.78 51.78 56.78 48.72 56.78 C 48.72 54.25 48.72 51.72 48.72 49.19 Z" />
<path fill="#e32343" opacity="1.00" d=" M 410.31 61.25 C 413.57 59.12 418.33 62.08 417.87 65.94 C 417.80 69.57 413.30 71.92 410.27 69.96 C 407.03 68.20 407.02 62.96 410.31 61.25 Z" />
<path fill="#e32343" opacity="1.00" d=" M 34.55 63.44 C 37.06 63.43 39.57 63.43 42.08 63.43 C 42.08 67.42 42.11 71.41 42.04 75.41 C 38.31 72.32 36.14 67.91 34.55 63.44 Z" />
</g>
</svg>
